<svg width="136" height="46" viewBox="0 0 136 46" fill="none" xmlns="http://www.w3.org/2000/svg">
<text y="30" x="51" fill="black">Climaxx</text>
<rect x="14" y="2" width="17" height="42" rx="2" fill="#00ACB1"/>
<rect y="15" width="16" height="17" rx="2" fill="#00ACB1"/>
<path d="M36.4076 12.7929C35.9925 12.1337 35.0999 12.2367 34.8262 12.9573C33.5538 16.2521 30.752 18.6027 27.2315 19.1227L22.7892 19.7788C16.9032 20.6481 12.8443 26.2048 13.7274 32.1844C13.7857 32.5792 13.886 32.9506 13.9815 33.3285C17.1435 30.2273 21.9344 27.2832 29.1864 26.2121C29.675 26.1399 30.1348 26.487 30.2081 26.9834C30.2814 27.4799 29.9416 27.9451 29.453 28.0172C15.4931 30.079 10.8577 39.6463 10.0296 43.106C9.79897 44.0796 10.3871 45.0649 11.348 45.3092C12.3153 45.5583 13.2823 44.9601 13.5249 43.9905C13.5782 43.7751 14.2864 41.117 16.7626 38.2899C18.9275 40.5007 22.6971 42.3591 27.1177 41.2105C35.7407 39.2798 40.7035 30.4309 39.2671 20.7056C38.8489 17.8737 37.8159 15.0289 36.4076 12.7929V12.7929Z" fill="white"/>
</svg>
