<?xml version="1.0" encoding="UTF-8" standalone="no" ?>
<!DOCTYPE svg PUBLIC "-//W3C//DTD SVG 1.1//EN" "http://www.w3.org/Graphics/SVG/1.1/DTD/svg11.dtd">
<svg xmlns="http://www.w3.org/2000/svg" xmlns:xlink="http://www.w3.org/1999/xlink" version="1.1" width="1080" height="1080" viewBox="0 0 1080 1080" xml:space="preserve">
<desc>Created with Fabric.js 5.2.4</desc>
<defs>
</defs>
<g transform="matrix(1 0 0 1 540 540)" id="8884ea8d-86a6-48a5-b0ce-a555d2cf64a1"  >
</g>
<g transform="matrix(1 0 0 1 540 540)" id="57fd92eb-c67b-4164-9991-d643a0a5b953"  >
<rect style="stroke: none; stroke-width: 1; stroke-dasharray: none; stroke-linecap: butt; stroke-dashoffset: 0; stroke-linejoin: miter; stroke-miterlimit: 4; fill: rgb(255,255,255); fill-rule: nonzero; opacity: 1; visibility: hidden;" vector-effect="non-scaling-stroke"  x="-540" y="-540" rx="0" ry="0" width="1080" height="1080" />
</g>
<g transform="matrix(7.94 0 0 7.94 178.67 539.98)"  >
<rect style="stroke: none; stroke-width: 1; stroke-dasharray: none; stroke-linecap: butt; stroke-dashoffset: 0; stroke-linejoin: miter; stroke-miterlimit: 4; fill: rgb(0,172,177); fill-rule: nonzero; opacity: 1;" vector-effect="non-scaling-stroke"  x="-8.5" y="-21" rx="2" ry="2" width="17" height="42" />
</g>
<g transform="matrix(7.94 0 0 7.94 63.52 543.96)"  >
<rect style="stroke: none; stroke-width: 1; stroke-dasharray: none; stroke-linecap: butt; stroke-dashoffset: 0; stroke-linejoin: miter; stroke-miterlimit: 4; fill: rgb(0,172,177); fill-rule: nonzero; opacity: 1;" vector-effect="non-scaling-stroke"  x="-8" y="-8.5" rx="2" ry="2" width="16" height="17" />
</g>
<g transform="matrix(7.94 0 0 7.94 196.5 586.51)"  >
<path style="stroke: none; stroke-width: 1; stroke-dasharray: none; stroke-linecap: butt; stroke-dashoffset: 0; stroke-linejoin: miter; stroke-miterlimit: 4; fill: rgb(255,255,255); fill-rule: nonzero; opacity: 1;" vector-effect="non-scaling-stroke"  transform=" translate(-24.75, -28.86)" d="M 36.4076 12.7929 C 35.9925 12.1337 35.0999 12.2367 34.8262 12.9573 C 33.5538 16.2521 30.752 18.6027 27.2315 19.1227 L 22.7892 19.7788 C 16.9032 20.6481 12.8443 26.2048 13.7274 32.1844 C 13.7857 32.5792 13.886 32.9506 13.9815 33.3285 C 17.1435 30.2273 21.9344 27.2832 29.1864 26.2121 C 29.675 26.1399 30.1348 26.487 30.2081 26.9834 C 30.2814 27.4799 29.9416 27.9451 29.453 28.0172 C 15.4931 30.079 10.8577 39.6463 10.0296 43.106 C 9.79897 44.0796 10.3871 45.0649 11.348 45.3092 C 12.3153 45.5583 13.2823 44.9601 13.5249 43.9905 C 13.5782 43.7751 14.2864 41.117 16.7626 38.2899 C 18.9275 40.5007 22.6971 42.3591 27.1177 41.2105 C 35.7407 39.2798 40.7035 30.4309 39.2671 20.7056 C 38.8489 17.8737 37.8159 15.0289 36.4076 12.7929 L 36.4076 12.7929 Z" stroke-linecap="round" />
</g>
<g transform="matrix(1 0 0 1 680.15 556.66)" style="" id="3823a4f9-27fb-4a59-9ad2-e7ec1c65984f"  >
		<text xml:space="preserve" font-family="Raleway" font-size="153" font-style="normal" font-weight="900" style="stroke: none; stroke-width: 1; stroke-dasharray: none; stroke-linecap: butt; stroke-dashoffset: 0; stroke-linejoin: miter; stroke-miterlimit: 4; fill: rgb(255,255,255); fill-rule: nonzero; opacity: 1; white-space: pre;" ><tspan x="-304.39" y="48.06" >Climaxx</tspan></text>
</g>
</svg>